<svg version="1.1" id="Layer_1" xmlns="http://www.w3.org/2000/svg" xmlns:xlink="http://www.w3.org/1999/xlink" x="0px" y="0px"
	 width="100%" viewBox="0 0 223 348" enable-background="new 0 0 223 348" xml:space="preserve">
<path fill="#111111" opacity="1.000000" stroke="none" 
	d="
M224.000000,100.000000 
	C224.000000,183.333313 224.000000,266.166626 224.000000,348.999939 
	C149.666702,348.999969 75.333405,348.999969 1.000084,349.000000 
	C1.000056,233.000061 1.000056,117.000130 1.000028,1.000147 
	C75.333252,1.000098 149.666504,1.000098 223.999878,1.000049 
	C224.000000,33.833332 224.000000,66.666664 224.000000,100.000000 
M197.006104,256.500000 
	C197.005966,178.699677 197.008163,100.899368 197.002625,23.099051 
	C197.001968,13.826486 193.223541,10.012238 184.049057,10.011153 
	C134.403427,10.005289 84.757790,10.007576 35.112152,10.008818 
	C23.719488,10.009103 20.015898,13.771312 20.015533,25.379679 
	C20.012423,124.337753 20.013046,223.295837 20.014740,322.253906 
	C20.014927,333.149780 24.535002,337.927032 35.363075,337.940338 
	C84.842033,338.001190 134.321152,337.992401 183.800125,337.942017 
	C192.261108,337.933411 196.992416,332.979980 196.999283,324.471619 
	C197.017303,302.147736 197.005844,279.823883 197.006104,256.500000 
z"/>
<path fill="#272727" opacity="1.000000" stroke="none" 
	d="
M197.006104,257.000000 
	C197.005844,279.823883 197.017303,302.147736 196.999283,324.471619 
	C196.992416,332.979980 192.261108,337.933411 183.800125,337.942017 
	C134.321152,337.992401 84.842033,338.001190 35.363075,337.940338 
	C24.535002,337.927032 20.014927,333.149780 20.014740,322.253906 
	C20.013046,223.295837 20.012423,124.337753 20.015533,25.379679 
	C20.015898,13.771312 23.719488,10.009103 35.112152,10.008818 
	C84.757790,10.007576 134.403427,10.005289 184.049057,10.011153 
	C193.223541,10.012238 197.001968,13.826486 197.002625,23.099051 
	C197.008163,100.899368 197.005966,178.699677 197.006104,257.000000 
M71.499847,328.301453 
	C105.823174,328.301453 140.146500,328.302887 174.469833,328.300629 
	C185.740280,328.299896 189.300308,324.702484 189.300522,313.307190 
	C189.302200,220.501053 189.301498,127.694908 189.300842,34.888767 
	C189.300842,33.555866 189.373596,32.216751 189.272903,30.891127 
	C188.810486,24.803469 184.374802,20.179670 178.273621,20.064926 
	C167.447266,19.861311 156.614044,19.958805 145.785095,20.069201 
	C144.799606,20.079248 143.264328,20.871277 142.940277,21.682169 
	C141.452728,25.404671 138.706528,26.349033 135.011459,26.329659 
	C118.516754,26.243170 102.020638,26.208862 85.526596,26.345070 
	C80.856079,26.383638 77.274345,25.410940 76.617432,19.997120 
	C65.945984,19.997120 55.625256,19.995708 45.304523,19.997505 
	C34.378380,19.999405 30.295656,24.080738 30.294565,35.048622 
	C30.289436,86.533531 30.292269,138.018448 30.292278,189.503357 
	C30.292288,231.157822 30.277390,272.812286 30.303789,314.466736 
	C30.309734,323.847687 34.713505,328.252014 44.007633,328.293030 
	C52.838207,328.331970 61.669086,328.301422 71.499847,328.301453 
z"/>
<path fill="#F9FBFA" opacity="1.000000" stroke="none" 
	d="
M70.999840,328.301453 
	C61.669086,328.301422 52.838207,328.331970 44.007633,328.293030 
	C34.713505,328.252014 30.309734,323.847687 30.303789,314.466736 
	C30.277390,272.812286 30.292288,231.157822 30.292278,189.503357 
	C30.292269,138.018448 30.289436,86.533531 30.294565,35.048622 
	C30.295656,24.080738 34.378380,19.999405 45.304523,19.997505 
	C55.625256,19.995708 65.945984,19.997120 76.617432,19.997120 
	C77.274345,25.410940 80.856079,26.383638 85.526596,26.345070 
	C102.020638,26.208862 118.516754,26.243170 135.011459,26.329659 
	C138.706528,26.349033 141.452728,25.404671 142.940277,21.682169 
	C143.264328,20.871277 144.799606,20.079248 145.785095,20.069201 
	C156.614044,19.958805 167.447266,19.861311 178.273621,20.064926 
	C184.374802,20.179670 188.810486,24.803469 189.272903,30.891127 
	C189.373596,32.216751 189.300842,33.555866 189.300842,34.888767 
	C189.301498,127.694908 189.302200,220.501053 189.300522,313.307190 
	C189.300308,324.702484 185.740280,328.299896 174.469833,328.300629 
	C140.146500,328.302887 105.823174,328.301453 70.999840,328.301453 
M155.215500,46.777779 
	C123.081650,46.760147 90.947746,46.703674 58.813984,46.749489 
	C49.645329,46.762558 43.826748,52.262192 43.853806,60.514538 
	C43.881130,68.848412 49.662998,74.241386 58.807003,74.261650 
	C79.619209,74.307755 100.431633,74.304741 121.243858,74.265350 
	C132.891678,74.243309 144.539307,74.108749 157.050095,74.197380 
	C159.040680,74.220421 161.039169,74.368271 163.020355,74.242798 
	C168.672028,73.884880 172.682037,71.030190 174.898102,65.845909 
	C177.040817,60.833252 176.257477,56.090275 172.944916,51.832546 
	C168.552948,46.187447 162.401398,46.354240 155.215500,46.777779 
M179.722870,90.776321 
	C175.505325,89.093529 171.301941,85.991875 167.068024,85.949615 
	C128.940582,85.568985 90.807602,85.661201 52.676662,85.766266 
	C42.447571,85.794449 35.070850,93.150459 34.792927,103.359444 
	C34.570976,111.512474 34.572620,119.680138 34.772751,127.833992 
	C35.033928,138.474930 42.631119,145.867249 53.368507,145.886780 
	C91.166603,145.955490 128.965042,145.969040 166.763031,145.877426 
	C177.390366,145.851669 184.917221,138.139679 185.039841,127.537300 
	C185.124557,120.211746 184.906357,112.880302 185.107269,105.559273 
	C185.256470,100.122871 183.827972,95.389771 179.722870,90.776321 
M185.062866,183.549194 
	C186.676041,168.229553 178.203522,159.242950 161.137390,159.610931 
	C125.836388,160.372131 90.507500,159.824631 55.190102,159.848419 
	C41.527950,159.857620 34.727085,166.711578 34.717648,180.480103 
	C34.693783,215.297729 34.692532,250.115387 34.718510,284.933014 
	C34.728443,298.247772 41.710907,305.436249 54.890533,305.460510 
	C91.707146,305.528320 128.524063,305.535675 165.340637,305.455505 
	C177.935150,305.428070 185.053497,298.082764 185.058289,285.489441 
	C185.071075,251.837936 185.062775,218.186447 185.062866,183.549194 
z"/>
<path fill="#018A82" opacity="1.000000" stroke="none" 
	d="
M179.971954,91.049301 
	C183.827972,95.389771 185.256470,100.122871 185.107269,105.559273 
	C184.906357,112.880302 185.124557,120.211746 185.039841,127.537300 
	C184.917221,138.139679 177.390366,145.851669 166.763031,145.877426 
	C128.965042,145.969040 91.166603,145.955490 53.368507,145.886780 
	C42.631119,145.867249 35.033928,138.474930 34.772751,127.833992 
	C34.572620,119.680138 34.570976,111.512474 34.792927,103.359444 
	C35.070850,93.150459 42.447571,85.794449 52.676662,85.766266 
	C90.807602,85.661201 128.940582,85.568985 167.068024,85.949615 
	C171.301941,85.991875 175.505325,89.093529 179.971954,91.049301 
z"/>
<path fill="#272727" opacity="1.000000" stroke="none" 
	d="
M185.062851,184.042068 
	C185.062775,218.186447 185.071075,251.837936 185.058289,285.489441 
	C185.053497,298.082764 177.935150,305.428070 165.340637,305.455505 
	C128.524063,305.535675 91.707146,305.528320 54.890533,305.460510 
	C41.710907,305.436249 34.728443,298.247772 34.718510,284.933014 
	C34.692532,250.115387 34.693783,215.297729 34.717648,180.480103 
	C34.727085,166.711578 41.527950,159.857620 55.190102,159.848419 
	C90.507500,159.824631 125.836388,160.372131 161.137390,159.610931 
	C178.203522,159.242950 186.676041,168.229553 185.062851,184.042068 
M130.994507,233.488846 
	C130.994415,220.343994 131.241882,207.191925 130.858246,194.058273 
	C130.726227,189.538040 129.820312,184.674332 127.863235,180.650787 
	C123.964653,172.635635 116.357178,171.717728 108.269997,171.922424 
	C96.457443,172.221451 89.039429,179.377930 89.013550,191.234329 
	C88.976509,208.206085 89.120422,225.178970 88.973824,242.149536 
	C88.798401,262.457031 102.119278,265.907257 117.225304,263.533112 
	C121.725555,262.825806 125.539215,259.935547 127.968109,255.358398 
	C131.527435,248.650955 130.851791,241.559189 130.994507,233.488846 
M51.296921,172.149567 
	C44.299603,174.925110 39.181126,179.553864 39.080757,187.460266 
	C38.825100,207.599380 38.971409,227.743958 39.011318,247.886246 
	C39.022327,253.440750 41.583328,257.480774 46.090672,260.843475 
	C51.006226,264.510712 56.402672,264.016846 61.853237,263.992340 
	C71.684021,263.948120 79.743782,256.796600 79.895462,247.064789 
	C80.196358,227.759476 80.116791,208.444901 79.930458,189.136703 
	C79.839378,179.698013 70.364540,170.747421 62.128910,171.921127 
	C58.863747,172.386459 55.481239,172.028366 51.296921,172.149567 
M162.348236,264.001556 
	C172.669205,263.851654 180.924286,256.839874 180.968109,247.876144 
	C181.064133,228.234909 181.240204,208.587311 180.786667,188.956085 
	C180.699951,185.203003 178.404266,181.154114 176.193405,177.870804 
	C171.885727,171.473450 164.965759,171.810623 158.185120,171.953323 
	C147.158356,172.185379 140.034393,179.139389 140.011993,190.154755 
	C139.974075,208.797653 139.982880,227.440735 140.031967,246.083588 
	C140.036713,247.885284 140.232605,249.752197 140.730820,251.475800 
	C143.269455,260.257965 149.529770,263.996979 162.348236,264.001556 
M140.500000,272.002441 
	C108.862312,272.002441 77.224632,271.997253 45.586945,272.006866 
	C39.231651,272.008789 39.028126,272.223206 38.993095,278.353577 
	C38.975018,281.517242 38.973289,284.681183 38.993382,287.844849 
	C39.033669,294.187958 39.819050,294.984192 46.273243,294.988739 
	C68.752655,295.004486 91.232086,294.995239 113.711510,294.995056 
	C134.026245,294.994873 154.341263,294.938416 174.655518,295.037842 
	C179.030014,295.059265 181.214966,293.473846 181.031586,288.904907 
	C180.878113,285.081238 180.817444,281.235413 181.049500,277.419678 
	C181.303833,273.237518 179.526886,271.876892 175.467911,271.941071 
	C164.147781,272.120117 152.822968,272.002777 140.500000,272.002441 
z"/>
<path fill="#00B76A" opacity="1.000000" stroke="none" 
	d="
M156.187012,74.024887 
	C144.539307,74.108749 132.891678,74.243309 121.243858,74.265350 
	C100.431633,74.304741 79.619209,74.307755 58.807003,74.261650 
	C49.662998,74.241386 43.881130,68.848412 43.853806,60.514538 
	C43.826748,52.262192 49.645329,46.762558 58.813984,46.749489 
	C90.947746,46.703674 123.081650,46.760147 155.424881,47.107880 
	C149.944016,50.225010 146.722076,54.514740 146.872299,61.121391 
	C147.020554,67.641327 151.053452,71.190399 156.187012,74.024887 
z"/>
<path fill="#4C4D4C" opacity="1.000000" stroke="none" 
	d="
M156.618561,74.111130 
	C151.053452,71.190399 147.020554,67.641327 146.872299,61.121391 
	C146.722076,54.514740 149.944016,50.225010 155.894562,47.206810 
	C162.401398,46.354240 168.552948,46.187447 172.944916,51.832546 
	C176.257477,56.090275 177.040817,60.833252 174.898102,65.845909 
	C172.682037,71.030190 168.672028,73.884880 163.020355,74.242798 
	C161.039169,74.368271 159.040680,74.220421 156.618561,74.111130 
z"/>
<path fill="#343434" opacity="1.000000" stroke="none" 
	d="
M130.994507,233.986053 
	C130.851791,241.559189 131.527435,248.650955 127.968109,255.358398 
	C125.539215,259.935547 121.725555,262.825806 117.225304,263.533112 
	C102.119278,265.907257 88.798401,262.457031 88.973824,242.149536 
	C89.120422,225.178970 88.976509,208.206085 89.013550,191.234329 
	C89.039429,179.377930 96.457443,172.221451 108.269997,171.922424 
	C116.357178,171.717728 123.964653,172.635635 127.863235,180.650787 
	C129.820312,184.674332 130.726227,189.538040 130.858246,194.058273 
	C131.241882,207.191925 130.994415,220.343994 130.994507,233.986053 
z"/>
<path fill="#343434" opacity="1.000000" stroke="none" 
	d="
M51.724541,172.097366 
	C55.481239,172.028366 58.863747,172.386459 62.128910,171.921127 
	C70.364540,170.747421 79.839378,179.698013 79.930458,189.136703 
	C80.116791,208.444901 80.196358,227.759476 79.895462,247.064789 
	C79.743782,256.796600 71.684021,263.948120 61.853237,263.992340 
	C56.402672,264.016846 51.006226,264.510712 46.090672,260.843475 
	C41.583328,257.480774 39.022327,253.440750 39.011318,247.886246 
	C38.971409,227.743958 38.825100,207.599380 39.080757,187.460266 
	C39.181126,179.553864 44.299603,174.925110 51.724541,172.097366 
z"/>
<path fill="#343434" opacity="1.000000" stroke="none" 
	d="
M161.885681,264.001648 
	C149.529770,263.996979 143.269455,260.257965 140.730820,251.475800 
	C140.232605,249.752197 140.036713,247.885284 140.031967,246.083588 
	C139.982880,227.440735 139.974075,208.797653 140.011993,190.154755 
	C140.034393,179.139389 147.158356,172.185379 158.185120,171.953323 
	C164.965759,171.810623 171.885727,171.473450 176.193405,177.870804 
	C178.404266,181.154114 180.699951,185.203003 180.786667,188.956085 
	C181.240204,208.587311 181.064133,228.234909 180.968109,247.876144 
	C180.924286,256.839874 172.669205,263.851654 161.885681,264.001648 
z"/>
<path fill="#343434" opacity="1.000000" stroke="none" 
	d="
M141.000000,272.002441 
	C152.822968,272.002777 164.147781,272.120117 175.467911,271.941071 
	C179.526886,271.876892 181.303833,273.237518 181.049500,277.419678 
	C180.817444,281.235413 180.878113,285.081238 181.031586,288.904907 
	C181.214966,293.473846 179.030014,295.059265 174.655518,295.037842 
	C154.341263,294.938416 134.026245,294.994873 113.711510,294.995056 
	C91.232086,294.995239 68.752655,295.004486 46.273243,294.988739 
	C39.819050,294.984192 39.033669,294.187958 38.993382,287.844849 
	C38.973289,284.681183 38.975018,281.517242 38.993095,278.353577 
	C39.028126,272.223206 39.231651,272.008789 45.586945,272.006866 
	C77.224632,271.997253 108.862312,272.002441 141.000000,272.002441 
z"/>
</svg>