<svg version="1.1" id="Layer_1" xmlns="http://www.w3.org/2000/svg" xmlns:xlink="http://www.w3.org/1999/xlink" x="0px" y="0px"
	 width="100%" viewBox="0 0 181 176" enable-background="new 0 0 181 176" xml:space="preserve">
<path fill="#FFFFFF" opacity="1.000000" stroke="none" 
	d="
M1.000000,164.000000 
	C1.000000,114.645775 1.000000,65.291542 1.463611,15.380890 
	C3.249887,14.730881 4.572528,14.555913 5.895224,14.555496 
	C50.883667,14.541330 95.872116,14.542585 140.860565,14.549341 
	C142.191879,14.549541 143.528198,14.573787 144.853729,14.686382 
	C157.817764,15.787601 166.912079,25.319281 167.234344,38.341454 
	C167.403305,45.168880 167.334946,52.005108 167.210297,58.834381 
	C167.185730,60.180374 166.484344,61.541069 165.968918,62.845108 
	C165.047958,65.175217 163.233170,67.451111 163.185837,69.778023 
	C162.914749,83.102417 163.013794,96.435432 163.102554,109.764755 
	C163.114273,111.525421 163.190048,114.164787 164.255692,114.881668 
	C168.129379,117.487633 167.216354,121.154884 167.256729,124.670425 
	C167.306473,129.002075 167.278091,133.334763 167.266922,137.666946 
	C167.222092,155.043900 157.802795,164.451141 140.416504,164.453964 
	C95.927925,164.461166 51.439342,164.462219 6.950780,164.437012 
	C4.967105,164.435883 2.983590,164.152115 1.000000,164.000000 
z"/>
<path fill="#2A2A2A" opacity="1.000000" stroke="none" 
	d="
M1.000000,164.458069 
	C2.983590,164.152115 4.967105,164.435883 6.950780,164.437012 
	C51.439342,164.462219 95.927925,164.461166 140.416504,164.453964 
	C157.802795,164.451141 167.222092,155.043900 167.266922,137.666946 
	C167.278091,133.334763 167.306473,129.002075 167.256729,124.670425 
	C167.216354,121.154884 168.129379,117.487633 164.255692,114.881668 
	C163.190048,114.164787 163.114273,111.525421 163.102554,109.764755 
	C163.013794,96.435432 162.914749,83.102417 163.185837,69.778023 
	C163.233170,67.451111 165.047958,65.175217 165.968918,62.845108 
	C166.484344,61.541069 167.185730,60.180374 167.210297,58.834381 
	C167.334946,52.005108 167.403305,45.168880 167.234344,38.341454 
	C166.912079,25.319281 157.817764,15.787601 144.853729,14.686382 
	C143.528198,14.573787 142.191879,14.549541 140.860565,14.549341 
	C95.872116,14.542585 50.883667,14.541330 5.895224,14.555496 
	C4.572528,14.555913 3.249887,14.730881 1.463611,14.912231 
	C1.000000,11.638713 1.000000,8.277426 1.468589,4.467198 
	C50.936859,4.021202 99.936554,4.004717 148.936203,4.038366 
	C164.597916,4.049122 174.977081,14.403980 174.981094,29.907589 
	C174.991547,70.240692 175.003006,110.573807 174.973663,150.906876 
	C174.963943,164.270035 164.249847,174.982742 150.999100,174.985306 
	C100.999397,174.994995 50.999699,174.995834 1.000000,175.000000 
	C1.000000,171.638718 1.000000,168.277420 1.000000,164.458069 
z"/>
<path fill="#111111" opacity="1.000000" stroke="none" 
	d="
M1.000001,175.500000 
	C50.999699,174.995834 100.999397,174.994995 150.999100,174.985306 
	C164.249847,174.982742 174.963943,164.270035 174.973663,150.906876 
	C175.003006,110.573807 174.991547,70.240692 174.981094,29.907589 
	C174.977081,14.403980 164.597916,4.049122 148.936203,4.038366 
	C99.936554,4.004717 50.936859,4.021202 1.468589,4.009130 
	C1.000000,3.000000 1.000000,2.000001 1.000000,1.000001 
	C61.333313,1.000000 121.666626,1.000000 181.999954,1.000000 
	C181.999969,59.666626 181.999969,118.333252 181.999985,176.999939 
	C123.000061,177.000000 64.000122,177.006561 5.000226,176.958221 
	C3.666559,176.957138 2.333400,176.333328 1.000001,175.500000 
z"/>
</svg>